<?xml version="1.0" encoding="utf-8"?>
<!-- Generator: Adobe Illustrator 28.0.0, SVG Export Plug-In . SVG Version: 6.00 Build 0)  -->
<svg version="1.1" id="Layer_1" xmlns="http://www.w3.org/2000/svg" xmlns:xlink="http://www.w3.org/1999/xlink" x="0px" y="0px"
	 viewBox="0 0 1639 1036" style="enable-background:new 0 0 1639 1036;" xml:space="preserve">
<style type="text/css">
	.st0{fill:#DBDBDB;}
	.st1{clip-path:url(#SVGID_00000127015892810769749490000017647168175428663708_);}
	.st2{fill:#BDC291;}
	.st3{fill:#9CCBD8;}
	.st4{fill:#F2F2F2;}
	.st5{fill:#6E6D6D;}
	.st6{clip-path:url(#SVGID_00000047754080219359851120000003437288273024798346_);}
	.st7{fill:#A7B270;}
	.st8{fill:#A0A09F;}
	.st9{fill:#D6F2BD;}
	.st10{fill:#E2E8D3;}
	.st11{fill:#FFFFFF;}
	.st12{fill:#BECA9B;}
	.st13{fill:#A8A8A9;}
	.st14{fill:#5B5D5F;}
	.st15{fill:#A9A8A9;}
	.st16{fill:#C9C9CA;}
	.st17{fill:#7F7F80;}
	.st18{fill:#9C9C9D;}
	.st19{fill:#998675;}
	.st20{fill:#9E9D9E;}
	.st21{fill:#808080;}
	.st22{fill:#999999;}
	.st23{fill:#E6E6E6;}
	.st24{fill:#EAE9E9;}
	.st25{fill:#CCCCCC;}
	.st26{fill:#C9CACA;}
	.st27{fill:#5D6062;}
	.st28{fill:#808182;}
	.st29{fill:#954A4B;}
	.st30{fill:#5E678A;}
	.st31{fill:#CACACB;}
	.st32{fill:#646E8E;}
	.st33{fill:#B18181;}
	.st34{fill:#515656;}
	.st35{fill:#BE5F5E;}
	.st36{fill:#D59696;}
	.st37{fill:#D59797;}
	.st38{fill:#BC5D5D;}
	.st39{fill:#944F4D;}
	.st40{fill:#9B9B9C;}
	.st41{fill:#CEB248;}
	.st42{clip-path:url(#SVGID_00000078004676468489673610000004175513365007611780_);}
	.st43{fill:#8E9193;}
	.st44{font-family:'Roboto-Bold';}
	.st45{font-size:18.4894px;}
	.st46{fill:#82403F;}
	.st47{fill:#CBCBCC;}
	.st48{fill:#BC9D27;}
	.st49{clip-path:url(#SVGID_00000126315830636865023810000018376011613213572000_);}
	.st50{font-size:41.4447px;}
	.st51{clip-path:url(#SVGID_00000173148648238502970520000008607162066413602435_);}
	.st52{fill:#606788;}
	.st53{font-size:30.354px;}
	.st54{clip-path:url(#SVGID_00000168090437237586169720000014044586752612296597_);}
	.st55{clip-path:url(#SVGID_00000030478446974464742220000009055698499509249929_);}
	.st56{font-size:16.9999px;}
	.st57{font-size:16.8157px;}
	.st58{fill:#4D4D4D;}
	.st59{font-size:16.3964px;}
	.st60{font-size:17px;}
	.st61{font-size:17.0001px;}
	.st62{font-size:16.9998px;}
	.st63{font-size:16.6442px;}
	.st64{fill:#006699;}
	.st65{font-size:20.3041px;}
	.st66{fill:none;stroke:#BE5F5E;stroke-width:3;stroke-miterlimit:10;}
	.st67{fill:#006699;stroke:#006699;stroke-width:3;stroke-miterlimit:10;}
	.st68{clip-path:url(#SVGID_00000162348464998083986540000007505120200187771307_);}
	.st69{fill:#CC0000;}
</style>
<g id="layer_1">
	<g id="layer_2">
		<g id="layer_3">
			<path class="st0" d="M0,1020.3h1639V0H0V1020.3z"/>
			<g>
				<defs>
					<rect id="SVGID_1_" width="1639" height="1036"/>
				</defs>
				<clipPath id="SVGID_00000108311282990209511710000000994649814297993405_">
					<use xlink:href="#SVGID_1_"  style="overflow:visible;"/>
				</clipPath>
				<g style="clip-path:url(#SVGID_00000108311282990209511710000000994649814297993405_);">
					<path class="st2" d="M0,1064c0,0,470.6-330,585.3-333.5s505,33.9,553.4,45.4c48.4,11.5,894,214.9,894,214.9l30.8,73.2H299H0z"
						/>
					<path class="st3" d="M1214.1,184.2c0,0-38.7-19.1-91.1-7.6c-52.3,11.6-73.7,15.2-93.2,37.8c-19.6,22.6-20.4,37.3-26.7,49.1
						c-6.2,11.8-34.7,56.2-62.2,77.5c-27.6,21.3-105.6,53.6-104.4,83.3c1.3,29.6,45.3,45.1,98,43.2c52.6-2,150.1-78.6,150.1-78.6
						S1302.4,214,1214.1,184.2"/>
					<path class="st4" d="M2231,132L1261,32c0,0-16.7-0.5-27.4,13.4c-10.8,13.9-28.9,24.4-40.8,41.4c-11.8,17-19,27.6,13,29.8
						c32,2.2,397.4,48.4,397.4,48.4s38.7,6.2,22.2,32.9c-16.5,26.7-200.9,339.3-200.9,339.3s-25.9,49.5,39.1,63.6
						c65,14.1,98.9,19.6,98.9,19.6s33.5,5.6,17.6,43.1c-16,37.6-75.1,162.8-75.1,162.8l-10.1,36.7l76.9,14.2l78.6-191.3L2223,798
						L2231,132z"/>
					<path class="st2" d="M2232,94c0,0-219.9-7.2-263.4-18.7c-43.5-11.6-65.7-14.2-107.5-16c-41.8-1.8-89,0.5-146.7-11.3
						c-57.7-11.8-176.9-17.8-176.9-17.8l-143.1-15.4l-147.9-6L1128.7-8.3L998.3-7.4c0,0-25.7-17.8-63.8,0
						c-38,17.8-49.6,17.4-44.3,55.4s10.2,26.7,21.1,68.6c23.3,89.3-35.3,144.5-35.3,144.5l-142.2,80.7c0,0-54.2,62.3-129.8,92.2
						c-75.6,29.9-89.8,65.4-168,98.3C357.8,565.1-97.7,763.6-170,790s21-361,21-361s529.5-69.6,611-93.9s185.9-62.5,227.9-115
						s67-107.6,55.9-144.9c-11.1-37.3,14.7-76.5-38.7-124.5l-53.4-48H2232V94z"/>
					<path class="st4" d="M2238,987L985.9,711.8c0,0-162.9-41.4-404.1-12.8C321,730-72,1036-72,1036l95,28
						c0,0,392.6-241.1,440.6-262.4s136.3-35.5,256-45.3c138.7-11.3,338.4,33.4,481.7,66.1C1344.6,854.9,1938,994,1938,994L2238,987z
						"/>
				</g>
			</g>
		</g>
		<g id="layer_3_00000176010522614477011290000007660539018431598244_">
			<path class="st5" d="M1304.8,27.3h7.2V0h-7.2V27.3z"/>
			<path class="st5" d="M1416.9,20.8h8.9V0h-8.9V20.8z"/>
			<g>
				<defs>
					<rect id="SVGID_00000160880517665658175700000009758024597230975627_" width="1639" height="1036"/>
				</defs>
				<clipPath id="SVGID_00000126283567366096207510000006091909680849304467_">
					<use xlink:href="#SVGID_00000160880517665658175700000009758024597230975627_"  style="overflow:visible;"/>
				</clipPath>
				<g style="clip-path:url(#SVGID_00000126283567366096207510000006091909680849304467_);">
					<path class="st7" d="M660.9,402.9c0,15.5-12.5,28-28,28c-15.5,0-28-12.5-28-28s12.5-28,28-28
						C648.4,374.9,660.9,387.4,660.9,402.9"/>
					<path class="st7" d="M692,337.1c0,15.5-12.5,28-28,28c-15.5,0-28-12.5-28-28s12.5-28,28-28C679.5,309.1,692,321.6,692,337.1"/>
					<path class="st7" d="M683.1,379.3c0,12.3-10,22.2-22.2,22.2c-12.3,0-22.2-10-22.2-22.2c0-12.3,10-22.2,22.2-22.2
						C673.2,357.1,683.1,367,683.1,379.3"/>
					<path class="st7" d="M714.3,309.1c0,12.3-10,22.2-22.2,22.2c-12.3,0-22.2-10-22.2-22.2c0-12.3,10-22.2,22.2-22.2
						C704.3,286.9,714.3,296.8,714.3,309.1"/>
					<path class="st7" d="M626.2,428.2c0,12.3-10,22.2-22.2,22.2c-12.3,0-22.2-10-22.2-22.2c0-12.3,10-22.2,22.2-22.2
						C616.3,406,626.2,415.9,626.2,428.2"/>
					<path class="st7" d="M751.6,294.9c0,12.3-10,22.2-22.2,22.2c-12.3,0-22.2-10-22.2-22.2s10-22.2,22.2-22.2
						C741.6,272.6,751.6,282.6,751.6,294.9"/>
					<path class="st7" d="M845.8,226c0,15.5-12.5,28-28,28c-15.5,0-28-12.5-28-28s12.5-28,28-28C833.3,198,845.8,210.5,845.8,226"/>
					<path class="st7" d="M1480.6-1.6c0,15.5-12.5,28-28,28c-15.5,0-28-12.5-28-28s12.5-28,28-28C1468-29.6,1480.6-17.1,1480.6-1.6"
						/>
					<path class="st7" d="M816.5,258.4c0,12.3-10,22.2-22.2,22.2c-12.3,0-22.2-10-22.2-22.2s10-22.2,22.2-22.2
						C806.5,236.2,816.5,246.1,816.5,258.4"/>
					<path class="st7" d="M890.3,175.7c0,12.3-10,22.2-22.2,22.2c-12.3,0-22.2-10-22.2-22.2c0-12.3,10-22.2,22.2-22.2
						C880.3,153.5,890.3,163.5,890.3,175.7"/>
					<path class="st7" d="M868.1,198c0,12.3-10,22.2-22.2,22.2c-12.3,0-22.2-10-22.2-22.2c0-12.3,10-22.2,22.2-22.2
						C858.1,175.7,868.1,185.7,868.1,198"/>
					<path class="st7" d="M499.8,490.2c0,15.5-12.5,28-28,28c-15.5,0-28-12.5-28-28s12.5-28,28-28
						C487.3,462.2,499.8,474.8,499.8,490.2"/>
					<path class="st7" d="M461.6,500.4c0,12.3-10,22.2-22.2,22.2s-22.2-10-22.2-22.2c0-12.3,10-22.2,22.2-22.2
						S461.6,488.2,461.6,500.4"/>
					<path class="st7" d="M432.6,513.4c0,12.3-10,22.2-22.2,22.2s-22.2-9.9-22.2-22.2c0-12.3,10-22.2,22.2-22.2
						S432.6,501.2,432.6,513.4"/>
					<path class="st7" d="M544.2,440c0,12.3-10,22.2-22.2,22.2c-12.3,0-22.2-10-22.2-22.2s10-22.2,22.2-22.2
						C534.3,417.8,544.2,427.7,544.2,440"/>
					<path class="st7" d="M522,462.2c0,12.3-10,22.2-22.2,22.2c-12.3,0-22.2-10-22.2-22.2s10-22.2,22.2-22.2
						C512.1,440,522,449.9,522,462.2"/>
					<path class="st7" d="M904.5,133.1c0,15.7-12.7,28.4-28.4,28.4s-28.4-12.7-28.4-28.4s12.7-28.4,28.4-28.4
						S904.5,117.4,904.5,133.1"/>
					<path class="st7" d="M790.7,280.6c0,15.7-12.7,28.4-28.4,28.4s-28.4-12.7-28.4-28.4s12.7-28.4,28.4-28.4
						S790.7,264.9,790.7,280.6"/>
					<path class="st7" d="M1613.9,33.4c-10.9,5.7-24.3,1.4-30-9.5c-5.7-10.9-1.4-24.3,9.5-30c10.9-5.7,24.3-1.4,30,9.5
						C1629,14.3,1624.8,27.7,1613.9,33.4"/>
					<path class="st7" d="M1583.9,23.9c-10.9,5.7-24.3,1.4-30-9.5c-5.7-10.9-1.4-24.3,9.5-30c10.9-5.7,24.3-1.4,30,9.5
						C1599,4.8,1594.8,18.2,1583.9,23.9"/>
					<path class="st7" d="M1658.3,26.3c-13.9,7.2-31.1,1.8-38.4-12.1c-7.2-13.9-1.8-31.1,12.1-38.4c13.9-7.2,31.1-1.8,38.4,12.1
						C1677.7,1.9,1672.3,19,1658.3,26.3"/>
					<path class="st7" d="M561.3,858.3c-10.9,5.7-24.3,1.4-30-9.5c-5.7-10.9-1.4-24.3,9.5-30c10.9-5.7,24.3-1.4,30,9.5
						C576.4,839.3,572.2,852.7,561.3,858.3"/>
					<path class="st7" d="M479.2,871.3c-10.9,5.7-24.3,1.4-30-9.5c-5.7-10.9-1.4-24.3,9.5-30c10.9-5.7,24.3-1.4,30,9.5
						C494.3,852.2,490.1,865.6,479.2,871.3"/>
					<path class="st7" d="M531.3,848.9c-10.9,5.7-24.3,1.4-30-9.5c-5.7-10.9-1.4-24.3,9.5-30c10.9-5.7,24.3-1.4,30,9.5
						C546.5,829.8,542.2,843.2,531.3,848.9"/>
					<path class="st7" d="M605.7,851.3c-13.9,7.2-31.1,1.8-38.4-12.1c-7.2-13.9-1.8-31.1,12.1-38.4c13.9-7.2,31.1-1.8,38.4,12.1
						C625.1,826.9,619.7,844,605.7,851.3"/>
					<path class="st7" d="M981.8,873.5c-10.9,5.7-24.3,1.4-30-9.5c-5.7-10.9-1.4-24.3,9.5-30c10.9-5.7,24.3-1.4,30,9.5
						C996.9,854.4,992.7,867.8,981.8,873.5"/>
					<path class="st7" d="M1043.1,897.1c-10.9,5.7-24.3,1.4-30-9.5c-5.7-10.9-1.4-24.3,9.5-30c10.9-5.7,24.3-1.4,30,9.5
						C1058.2,878,1054,891.4,1043.1,897.1"/>
					<path class="st7" d="M951.8,864c-10.9,5.7-24.3,1.4-30-9.5c-5.7-10.9-1.4-24.3,9.5-30c10.9-5.7,24.3-1.4,30,9.5
						C967,844.9,962.7,858.3,951.8,864"/>
					<path class="st7" d="M1026.2,866.4c-13.9,7.2-31.1,1.8-38.4-12.1c-7.2-13.9-1.8-31.1,12.1-38.4c13.9-7.2,31.1-1.8,38.4,12.1
						C1045.6,842,1040.2,859.1,1026.2,866.4"/>
					<path class="st7" d="M1051.2,197.5c0,15.5-12.5,28-28,28s-28-12.5-28-28s12.5-28,28-28S1051.2,182.1,1051.2,197.5"/>
					<path class="st7" d="M1089.4-18.1c0,12.3-9.9,22.2-22.2,22.2s-22.2-10-22.2-22.2s9.9-22.2,22.2-22.2S1089.4-30.3,1089.4-18.1"
						/>
					<path class="st7" d="M1074.3,175.7c0,12.3-9.9,22.2-22.2,22.2s-22.2-10-22.2-22.2c0-12.3,9.9-22.2,22.2-22.2
						S1074.3,163.5,1074.3,175.7"/>
					<path class="st7" d="M1025.4,226.4c0,12.3-10,22.2-22.2,22.2c-12.3,0-22.2-10-22.2-22.2s10-22.2,22.2-22.2
						C1015.5,204.2,1025.4,214.1,1025.4,226.4"/>
					<path class="st7" d="M1416.6-7.4c0,12.3-10,22.2-22.2,22.2c-12.3,0-22.2-10-22.2-22.2s9.9-22.2,22.2-22.2
						C1406.6-29.6,1416.6-19.7,1416.6-7.4"/>
					<path class="st7" d="M1562.4-1.2c0,12.3-9.9,22.2-22.2,22.2s-22.2-10-22.2-22.2s9.9-22.2,22.2-22.2S1562.4-13.4,1562.4-1.2"/>
					<path class="st7" d="M895.8-22.3c0,14.8-13,26.9-28.9,26.9c-16,0-28.9-12-28.9-26.9s13-26.9,28.9-26.9
						C882.8-49.2,895.8-37.1,895.8-22.3"/>
					<path class="st7" d="M865.5,8.9c0,11.8-10.3,21.3-23,21.3s-23-9.6-23-21.3s10.3-21.3,23-21.3S865.5-2.9,865.5,8.9"/>
					<path class="st7" d="M1372.1-2.1c0,11.8-10.3,21.3-23,21.3c-12.7,0-23-9.6-23-21.3c0-11.8,10.3-21.3,23-21.3
						C1361.8-23.4,1372.1-13.8,1372.1-2.1"/>
					<path class="st7" d="M1517.9-2.1c0,11.8-10.3,21.3-23,21.3c-12.7,0-23-9.6-23-21.3c0-11.8,10.3-21.3,23-21.3
						C1507.6-23.4,1517.9-13.8,1517.9-2.1"/>
					<path class="st7" d="M877.1,48c0,15.1-13.2,27.3-29.4,27.3S818.3,63.1,818.3,48s13.2-27.3,29.4-27.3S877.1,32.9,877.1,48"/>
					<path class="st7" d="M1237.9,857.6c0,15.7-12.7,28.4-28.4,28.4c-15.7,0-28.4-12.7-28.4-28.4s12.7-28.4,28.4-28.4
						C1225.1,829.2,1237.9,841.9,1237.9,857.6"/>
					<path class="st7" d="M1130.5,879.2c0,14.8-13,26.9-28.9,26.9s-28.9-12-28.9-26.9s13-26.9,28.9-26.9S1130.5,864.3,1130.5,879.2"
						/>
					<path class="st7" d="M1295.7,873c0,11.8-10.3,21.3-23,21.3c-12.7,0-23-9.6-23-21.3s10.3-21.3,23-21.3
						C1285.5,851.6,1295.7,861.2,1295.7,873"/>
					<path class="st7" d="M1162.3,857.6c0,11.8-10.3,21.3-23,21.3c-12.7,0-23-9.6-23-21.3s10.3-21.3,23-21.3
						C1152,836.3,1162.3,845.8,1162.3,857.6"/>
					<path class="st7" d="M1307.3,912.1c0,15.1-13.2,27.3-29.4,27.3c-16.2,0-29.4-12.2-29.4-27.3s13.2-27.3,29.4-27.3
						C1294.2,884.8,1307.3,897,1307.3,912.1"/>
					<path class="st7" d="M687.1,862.6c5.8-14.6,22.4-21.7,37-15.8c14.6,5.8,21.7,22.4,15.8,37c-5.8,14.6-22.4,21.7-37,15.8
						C688.4,893.7,681.3,877.2,687.1,862.6"/>
					<path class="st7" d="M785.7,891.7c5.8-14.6,22.4-21.7,37-15.8c14.6,5.8,21.7,22.4,15.8,37c-5.8,14.6-22.4,21.7-37,15.8
						C787,922.8,779.9,906.3,785.7,891.7"/>
					<path class="st7" d="M1419.9,942.2c-13.6,5.9-29.8-1.2-36.2-15.9c-6.3-14.7-0.4-31.3,13.2-37.2c13.6-5.9,29.8,1.2,36.2,15.9
						C1439.4,919.6,1433.5,936.3,1419.9,942.2"/>
					<path class="st7" d="M350.9,957.2c-13.6,5.9-29.8-1.2-36.2-15.9c-6.3-14.7-0.4-31.3,13.2-37.2c13.6-5.9,29.8,1.2,36.2,15.9
						C370.4,934.6,364.5,951.3,350.9,957.2"/>
					<path class="st7" d="M1379.2,926.7c-10.8,4.7-23.7-1-28.7-12.6c-5-11.6-0.4-24.9,10.5-29.5c10.8-4.7,23.7,1,28.7,12.6
						C1394.7,908.8,1390.1,922.1,1379.2,926.7"/>
					<path class="st7" d="M1452.3,962.8c-10.8,4.7-23.7-1-28.7-12.6c-5-11.6-0.4-24.9,10.5-29.5c10.8-4.7,23.7,1,28.7,12.6
						C1467.8,944.9,1463.1,958.2,1452.3,962.8"/>
					<path class="st7" d="M838.4,824.3c5.6-14,22.4-20.5,37.4-14.4c15.1,6,22.7,22.3,17.1,36.3c-5.6,14-22.4,20.5-37.4,14.4
						C840.4,854.6,832.8,838.3,838.4,824.3"/>
					<path class="st7" d="M590.7,433.5c0,15.7-12.7,28.4-28.4,28.4s-28.4-12.7-28.4-28.4s12.7-28.4,28.4-28.4
						S590.7,417.8,590.7,433.5"/>
					<path class="st7" d="M787.8,832.6c-7.2,9.9-21.1,12.1-31,4.9c-9.9-7.2-12.1-21.1-4.9-31c7.2-9.9,21.1-12.1,31-4.9
						C792.8,808.8,795,822.7,787.8,832.6"/>
					<path class="st7" d="M714.4,811.2c-7.2,9.9-21.1,12.1-31,4.9c-9.9-7.2-12.1-21.1-4.9-31c7.2-9.9,21.1-12.1,31-4.9
						C719.4,787.3,721.6,801.2,714.4,811.2"/>
					<path class="st7" d="M683.3,816.1c-7.2,9.9-21.1,12.1-31,4.9c-9.9-7.2-12.1-21.1-4.9-31c7.2-9.9,21.1-12.1,31-4.9
						C688.3,792.2,690.5,806.1,683.3,816.1"/>
					<path class="st7" d="M755.9,816c-9.2,12.7-27,15.5-39.7,6.3c-12.7-9.2-15.5-27-6.3-39.7c9.2-12.7,27-15.5,39.7-6.3
						C762.3,785.5,765.1,803.3,755.9,816"/>
					<path class="st8" d="M706.9,217.5c-9.7,9.7-24.2,26.9-24.2,40.2s10.8,24.2,24.2,24.2s24.2-10.8,24.2-24.2
						S714.1,224.7,706.9,217.5"/>
					<path class="st5" d="M719.6,262.7l-11,6.2l-1.4-15.7l-1.4,16.2l-11-6.2l8.6,10.8V308h6.7v-34L719.6,262.7z"/>
					<path class="st9" d="M1332.8,863.8c-9.7,9.7-24.2,26.9-24.2,40.2c0,13.4,10.8,24.2,24.2,24.2s24.2-10.8,24.2-24.2
						C1357,890.7,1340,871,1332.8,863.8"/>
					<path class="st5" d="M1345.4,909l-11,6.2l-1.4-15.7l-1.4,16.2l-11-6.2l8.6,10.8v33.9h6.7v-34L1345.4,909z"/>
					<path class="st10" d="M471.1,400.9c-9.7,9.7-24.2,26.9-24.2,40.2s10.8,24.2,24.2,24.2s24.2-10.8,24.2-24.2
						S478.3,408.1,471.1,400.9"/>
					<path class="st5" d="M483.8,446.1l-11,6.2l-1.4-15.7l-1.4,16.2l-11-6.2l8.6,10.8v33.9h6.7v-34L483.8,446.1z"/>
					<path class="st10" d="M632.2,730.5c-9.7,9.7-24.2,26.9-24.2,40.2c0,13.4,10.8,24.2,24.2,24.2s24.2-10.8,24.2-24.2
						C656.5,757.3,639.5,737.7,632.2,730.5"/>
					<path class="st5" d="M644.9,775.7l-11,6.2l-1.4-15.7l-1.4,16.2l-11-6.2l8.6,10.8v33.9h6.7v-34L644.9,775.7z"/>
					<path class="st10" d="M1079.4,815.8c-9.7,9.7-24.2,26.9-24.2,40.2c0,13.4,10.8,24.2,24.2,24.2s24.2-10.8,24.2-24.2
						C1103.6,842.7,1086.6,823,1079.4,815.8"/>
					<path class="st5" d="M1092.1,861l-11,6.2l-1.4-15.7l-1.4,16.2l-11-6.2l8.6,10.8v33.9h6.7v-34L1092.1,861z"/>
					<path class="st9" d="M610,329.5c-9.7,9.7-24.2,26.9-24.2,40.2S596.6,394,610,394s24.2-10.8,24.2-24.2S617.2,336.8,610,329.5"/>
					<path class="st5" d="M622.7,374.7l-11,6.2l-1.4-15.7l-1.4,16.2l-11-6.2l8.6,10.8V420h6.7v-34L622.7,374.7z"/>
					<path class="st10" d="M1057.2,94c-9.7,9.7-24.2,26.9-24.2,40.2s10.8,24.2,24.2,24.2s24.2-10.8,24.2-24.2
						S1064.4,101.2,1057.2,94"/>
					<path class="st5" d="M1069.8,139.1l-11,6.2l-1.4-15.7l-1.4,16.2l-11-6.2l8.6,10.8v33.9h6.7v-34L1069.8,139.1z"/>
					<path class="st11" d="M696.9,288.2c0,22.1-17.9,40-40,40s-40-17.9-40-40s17.9-40,40-40S696.9,266.1,696.9,288.2"/>
					<path class="st5" d="M677.8,296.4l-18.1,10.2l-2.4-26l-2.4,26.7l-18.1-10.2l14.2,17.9v56h11V315L677.8,296.4z"/>
					<path class="st9" d="M498.9,766.9c-9.7,9.7-24.2,26.9-24.2,40.2c0,13.4,10.8,24.2,24.2,24.2s24.2-10.8,24.2-24.2
						C523.1,793.8,506.1,774.1,498.9,766.9"/>
					<path class="st5" d="M511.6,812.1l-11,6.2l-1.4-15.7l-1.4,16.2l-11-6.2l8.6,10.8v33.9h6.7v-34L511.6,812.1z"/>
					<path class="st11" d="M488.9,837.6c0,22.1-17.9,40-40,40s-40-17.9-40-40s17.9-40,40-40S488.9,815.5,488.9,837.6"/>
					<path class="st5" d="M469.8,845.8L451.7,856l-2.4-26l-2.4,26.7l-18.1-10.2l14.2,17.9v56h11v-56.1L469.8,845.8z"/>
					<path class="st11" d="M942.3,836.7c0,22.1-17.9,40-40,40s-40-17.9-40-40s17.9-40,40-40S942.3,814.6,942.3,836.7"/>
					<path class="st5" d="M923.2,844.9l-18.1,10.2l-2.4-26l-2.4,26.7l-18.1-10.2l14.2,17.9v56h11v-56.1L923.2,844.9z"/>
					<path class="st7" d="M293.8,1000.5c-10.9,5.7-24.3,1.4-30-9.5c-5.7-10.9-1.4-24.3,9.5-30c10.9-5.7,24.3-1.4,30,9.5
						C308.9,981.4,304.7,994.8,293.8,1000.5"/>
					<path class="st7" d="M315.8,968c-10.9,5.7-24.3,1.4-30-9.5c-5.7-10.9-1.4-24.3,9.5-30c10.9-5.7,24.3-1.4,30,9.5
						C331,948.9,326.7,962.3,315.8,968"/>
					<path class="st7" d="M186.4,987.3c5.6-14,22.4-20.5,37.4-14.4c15.1,6,22.7,22.3,17.1,36.3c-5.6,14-22.4,20.5-37.4,14.4
						C188.4,1017.6,180.8,1001.3,186.4,987.3"/>
					<path class="st12" d="M306.3,940.7c0,22.1-17.9,40-40,40s-40-17.9-40-40s17.9-40,40-40S306.3,918.6,306.3,940.7"/>
					<path class="st5" d="M287.2,948.9l-18.1,10.2l-2.4-26l-2.4,26.7l-18.1-10.2l14.2,17.9v56h11v-56.1L287.2,948.9z"/>
					<path class="st12" d="M831.2,165.5c0,22.1-17.9,40-40,40s-40-17.9-40-40s17.9-40,40-40S831.2,143.4,831.2,165.5"/>
					<path class="st5" d="M812,173.7L794,183.9l-2.4-26l-2.4,26.7l-18.1-10.2l14.2,17.9v56h11v-56.1L812,173.7z"/>
					<path class="st7" d="M149.9,620.9c0,15.5-12.5,28-28,28c-15.5,0-28-12.5-28-28s12.5-28,28-28
						C137.4,592.9,149.9,605.4,149.9,620.9"/>
					<path class="st7" d="M223,597.1c0,15.5-12.5,28-28,28c-15.5,0-28-12.5-28-28s12.5-28,28-28C210.4,569.1,223,581.6,223,597.1"/>
					<path class="st7" d="M172.1,597.3c0,12.3-9.9,22.2-22.2,22.2c-12.3,0-22.2-9.9-22.2-22.2s10-22.2,22.2-22.2
						C162.2,575.1,172.1,585,172.1,597.3"/>
					<path class="st7" d="M258.3,576.1c0,12.3-9.9,22.2-22.2,22.2c-12.3,0-22.2-9.9-22.2-22.2s10-22.2,22.2-22.2
						C248.3,553.9,258.3,563.8,258.3,576.1"/>
					<path class="st7" d="M295.6,561.9c0,12.3-10,22.2-22.2,22.2c-12.3,0-22.2-9.9-22.2-22.2s10-22.2,22.2-22.2
						C285.6,539.6,295.6,549.6,295.6,561.9"/>
					<path class="st7" d="M389.8,517c0,15.5-12.5,28-28,28c-15.5,0-28-12.5-28-28s12.5-28,28-28C377.3,489,389.8,501.5,389.8,517"/>
					<path class="st7" d="M360.5,549.4c0,12.3-10,22.2-22.2,22.2c-12.3,0-22.2-9.9-22.2-22.2s10-22.2,22.2-22.2
						C350.5,527.2,360.5,537.1,360.5,549.4"/>
					<path class="st7" d="M334.7,547.6c0,15.7-12.7,28.4-28.4,28.4s-28.4-12.7-28.4-28.4s12.7-28.4,28.4-28.4
						S334.7,531.9,334.7,547.6"/>
					<path class="st7" d="M79.7,651.5c0,15.7-12.7,28.4-28.4,28.4s-28.4-12.7-28.4-28.4s12.7-28.4,28.4-28.4S79.7,635.8,79.7,651.5"
						/>
					<path class="st7" d="M114.7,658.5c0,15.7-12.7,28.4-28.4,28.4s-28.4-12.7-28.4-28.4s12.7-28.4,28.4-28.4
						S114.7,642.8,114.7,658.5"/>
					<path class="st7" d="M34.7,672.5C34.7,688.3,22,701,6.2,701s-28.4-12.7-28.4-28.4s12.7-28.4,28.4-28.4S34.7,656.8,34.7,672.5"
						/>
					<path class="st8" d="M250.9,484.5c-9.7,9.7-24.2,26.9-24.2,40.2c0,13.4,10.8,24.2,24.2,24.2c13.4,0,24.2-10.8,24.2-24.2
						C275.2,511.4,258.1,491.7,250.9,484.5"/>
					<path class="st5" d="M263.6,529.7l-11,6.2l-1.4-15.7l-1.4,16.2l-11-6.2l8.6,10.8V575h6.7v-34L263.6,529.7z"/>
					<path class="st9" d="M99,547.5c-9.7,9.7-24.2,26.9-24.2,40.2c0,13.4,10.8,24.2,24.2,24.2s24.2-10.8,24.2-24.2
						C123.2,574.4,106.2,554.8,99,547.5"/>
					<path class="st5" d="M111.7,592.7l-11,6.2l-1.4-15.7l-1.4,16.2l-11-6.2l8.6,10.8V638h6.7v-34L111.7,592.7z"/>
					<path class="st11" d="M185.9,506.2c0,22.1-17.9,40-40,40s-40-17.9-40-40s17.9-40,40-40S185.9,484.1,185.9,506.2"/>
					<path class="st5" d="M166.8,514.4l-18.1,10.2l-2.4-26l-2.4,26.7l-18.1-10.2l14.2,17.9v56h11V533L166.8,514.4z"/>
					<path class="st12" d="M375.2,456.5c0,22.1-17.9,40-40,40s-40-17.9-40-40s17.9-40,40-40S375.2,434.4,375.2,456.5"/>
					<path class="st5" d="M356,464.7L338,474.9l-2.4-26l-2.4,26.7l-18.1-10.2l14.2,17.9v56h11v-56.1L356,464.7z"/>
					<path class="st13" d="M1487.2,702.5l-4.9,87.6l33.4-72.8l6.6-83.6L1487.2,702.5z"/>
					<path class="st14" d="M1299.3,707.8v42.3l46.7,9.9l1-42L1299.3,707.8z"/>
					<path class="st14" d="M1090.2,663.6l1.9,41.4l165.8,36.1V699L1090.2,663.6z"/>
					<path class="st15" d="M1070.9,544.6l-1.5-29.2l0,0l-21.9,24.6L1070.9,544.6z"/>
					<path class="st16" d="M1044.1,510.5l-88.5-17.1L894,481.5l-24.2,23.4l62,12.2l92.5,18.2l23.3,4.6l21.9-24.6L1044.1,510.5z"/>
					<path class="st17" d="M1257.9,699v42.1l41.4,9v-42.3L1257.9,699z"/>
					<path class="st18" d="M993.4,600.9l0-0.1L872.5,576l0,0.1l4.1,42.4l120,25.4L993.4,600.9z"/>
					<path class="st19" d="M880.5,658.9l119.1,25.9l-3-41l-120-25.4L880.5,658.9z"/>
					<path class="st16" d="M565.8,512.7L565.8,512.7L565.8,512.7L565.8,512.7z"/>
					<path class="st20" d="M719,544.4l-6.2-1.1l-20.8-4.5l-126.2-26.1l0,0.2l7.2,41.4l146,30.9l95.1,20.1l-4.5-42.2l0,0L719,544.4z"
						/>
					<path class="st16" d="M661.4,436.7l-27.2,21.8L566.7,512l-0.9,0.7l0,0L692,538.8l20.8,4.3l6.2,1.3l90.6,18.6l0,0l31.5-30.4
						l28.7-27.7l24.2-23.4L661.4,436.7z"/>
					<path class="st21" d="M872.5,576L872.5,576l30.9-30.7l-62.3-12.7L809.6,563L872.5,576z"/>
					<path class="st14" d="M872.5,576.1l0-0.1L809.6,563l0,0.1l4.5,42.1l62.5,13.2L872.5,576.1z"/>
					<path class="st22" d="M822.7,685.9l32-32.7l-36.3-7.9L822.7,685.9z"/>
					<path class="st23" d="M1088.2,620.4l51.2-62.3l-68.5-13.5l-23.4-4.6l-23.3-4.6l-92.5-18.2l-62-12.2l-28.7,27.7l62.3,12.7
						l118,24.1l-28,31.5l40.7,8.4l5.4,1.2L1088.2,620.4L1088.2,620.4z"/>
					<path class="st24" d="M1088.2,620.4L1088.2,620.4L1088.2,620.4L1088.2,620.4z"/>
					<path class="st25" d="M1090.2,663.6l-2-43.1l0,0l-48.7-10l-5.4-1.1l0-0.1l-40.7-8.4l0,0.1l3.2,42.9l3,41l31.8,6.9l60.7,13.2
						L1090.2,663.6z"/>
					<path class="st26" d="M872.5,575.9L872.5,575.9l120.9,24.9l28-31.5l-118-24.1L872.5,575.9z"/>
					<path class="st17" d="M1512,214.3l-3.2,4.5l-6.4,116.3l11.9-18.5l3.9-6.1l7.6-115.5L1512,214.3z"/>
					<path class="st27" d="M1508.8,218.7l0,0.2l3.2-4.5l13.7-19.2l-0.1,0L1383,175.7L1223.2,154l-21.9,20.7l307.6,43.6L1508.8,218.7
						z"/>
					<path class="st28" d="M1580.1,132.9L1580.1,132.9l-7.3,98.4l-0.9,12.4l7.1-10.7l4.3-6.9l6.7-91.9l1.3-17.4L1580.1,132.9z"/>
					<path class="st29" d="M1556.8,151.6l-136.7-17.8l-37.1,42l142.7,19.5l0-0.1L1556.8,151.6z"/>
					<path class="st30" d="M1556.8,151.6L1556.8,151.6l14-19.6l0,0.1l0,0l0-0.2l0,0l-65.8-8l9-9.7l-69-8.5l-150.7-18.7l-28.4,26.9
						l-42.7,40.3l159.8,21.7l37.1-42L1556.8,151.6z"/>
					<path class="st31" d="M1570.8,131.7L1570.8,131.7l-65.8-8L1570.8,131.7L1570.8,131.7z"/>
					<path class="st32" d="M1556.8,151.6L1556.8,151.6L1556.8,151.6l-0.1,1.8l-5.6,84.9l-1.5,23.4l12.9-19.5l0.5-6l0.7-7.5l7.5-97.4
						L1556.8,151.6z"/>
					<path class="st33" d="M1556.7,153.3l0.1-1.8l-0.1,0l-31.1,43.6l0,0.1l0.2,0L1556.7,153.3z"/>
					<path class="st33" d="M1556.8,151.6L1556.8,151.6L1556.8,151.6L1556.8,151.6L1556.8,151.6z"/>
					<path class="st34" d="M1576.3,132.4l-5.4-0.7l0,0l-0.1,0l0,0.2l-7.1,96.7l-0.7,7.5l-0.5,6l9.3,1.4l0.9-12.4l7.3-98.4
						L1576.3,132.4z"/>
					<path class="st27" d="M1520,107l-15,16.7l65.8,8l0.1,0l0,0l5.4,0.7l3.8,0.5l11.1-16.2L1520,107z"/>
					<path class="st32" d="M1454.3,295.3l-6.2,8.7l-5,123.5L1464,395l38.4-59.9l6.4-116.3L1454.3,295.3z"/>
					<path class="st0" d="M1317.7,283.1l-24.7-3.8l-38.6,45.3l-54.5-9.2l-68.2,73.6l0,0.4l85.4,14.7L1317.7,283.1z"/>
					<path class="st19" d="M1293,279.3l-52.2-8.1l-40.9,44.2l54.5,9.2L1293,279.3z"/>
					<path class="st7" d="M1011.2,254.4c0,15.5-12.5,28-28,28c-15.5,0-28-12.5-28-28s12.5-28,28-28
						C998.6,226.4,1011.2,238.9,1011.2,254.4"/>
					<path class="st12" d="M1033,184.2c0,22.1-17.9,40-40,40s-40-17.9-40-40s17.9-40,40-40S1033,162.1,1033,184.2"/>
					<path class="st5" d="M1013.9,192.4l-18.1,10.2l-2.4-26l-2.4,26.7L973,193.1l14.2,17.9v56h11v-56.1L1013.9,192.4z"/>
					<path class="st12" d="M787.6,845.6c0,22.1-17.9,40-40,40s-40-17.9-40-40s17.9-40,40-40S787.6,823.5,787.6,845.6"/>
					<path class="st5" d="M768.5,853.8L750.4,864l-2.4-26l-2.4,26.7l-18.1-10.2l14.2,17.9v56h11v-56.1L768.5,853.8z"/>
					<path class="st11" d="M1170.1,831.8c-9.7,9.7-24.2,26.9-24.2,40.2c0,13.4,10.8,24.2,24.2,24.2s24.2-10.8,24.2-24.2
						C1194.3,858.7,1177.3,839,1170.1,831.8"/>
					<path class="st5" d="M1182.7,877l-11,6.2l-1.4-15.7l-1.4,16.2l-11-6.2l8.6,10.8v33.9h6.7v-34L1182.7,877z"/>
					<path class="st11" d="M572.7,829.2c-9.7,9.7-24.2,26.9-24.2,40.2c0,13.4,10.8,24.2,24.2,24.2s24.2-10.8,24.2-24.2
						C596.9,856,579.9,836.4,572.7,829.2"/>
					<path class="st5" d="M585.3,874.4l-11,6.2l-1.4-15.7l-1.4,16.2l-11-6.2l8.6,10.8v33.9h6.7v-34L585.3,874.4z"/>
					<path class="st8" d="M1272,898.5c0,14.5-11.7,26.2-26.2,26.2c-14.5,0-26.2-11.7-26.2-26.2s11.7-26.2,26.2-26.2
						C1260.3,872.3,1272,884,1272,898.5"/>
					<path class="st5" d="M1259.5,903.8l-11.8,6.7l-1.5-17l-1.5,17.5l-11.8-6.7l9.3,11.7v36.7h7.2V916L1259.5,903.8z"/>
					<path class="st8" d="M849.8,807.8c0,14.5-11.7,26.2-26.2,26.2c-14.5,0-26.2-11.7-26.2-26.2s11.7-26.2,26.2-26.2
						C838,781.6,849.8,793.3,849.8,807.8"/>
					<path class="st5" d="M837.3,813.1l-11.8,6.7l-1.5-17l-1.5,17.5l-11.8-6.7l9.3,11.7V862h7.2v-36.7L837.3,813.1z"/>
					<path class="st8" d="M400.8,896.8c0,14.5-11.7,26.2-26.2,26.2s-26.2-11.7-26.2-26.2s11.7-26.2,26.2-26.2
						S400.8,882.3,400.8,896.8"/>
					<path class="st5" d="M388.3,902.1l-11.8,6.7l-1.5-17l-1.5,17.5l-11.8-6.7l9.3,11.7V951h7.2v-36.7L388.3,902.1z"/>
					<path class="st11" d="M879.2,66.8c0,22.1-17.9,40-40,40s-40-17.9-40-40s17.9-40,40-40S879.2,44.7,879.2,66.8"/>
					<path class="st5" d="M860.1,75L842,85.2l-2.4-26L837.2,86l-18.1-10.2l14.2,17.9v56h11V93.6L860.1,75z"/>
					<path class="st12" d="M1562.1-61.6c-9.7,9.7-24.2,26.9-24.2,40.2s10.8,24.2,24.2,24.2s24.2-10.8,24.2-24.2
						S1569.4-54.4,1562.1-61.6"/>
					<path class="st5" d="M1574.8-16.4l-11,6.2l-1.4-15.7L1561-9.8l-11-6.2l8.6,10.8v33.9h6.7v-34L1574.8-16.4z"/>
					<path class="st5" d="M1223.7-55.7l-18.1,10.2l-2.4-26l-2.4,26.7l-18.1-10.2l14.2,17.9v56h11v-56.1L1223.7-55.7z"/>
					<path class="st35" d="M1131.7,389.4l-133.4-23l3.6,66.1l132,23.8L1131.7,389.4z"/>
					<path class="st35" d="M1357.4,496.5l0.6-22l1.2-45.8l-142.1-24.5l0.5,67.1L1357.4,496.5z"/>
					<path class="st36" d="M1136.2,521.5l-2.2-65.2l-132-23.8l3.5,63.7L1136.2,521.5z"/>
					<path class="st25" d="M1217.6,471.3l-0.5-67.1l-85.4-14.7l2.3,66.8l2.2,65.2l81.8,15.8L1217.6,471.3z"/>
					<path class="st37" d="M1218,537.2l86.7,16.7l51,9.8l1.8-67.3l-139.9-25.2L1218,537.2z"/>
					<path class="st38" d="M1557,151l-31.1,44.3l-0.2,0l-4,60.8l31.1-42.8L1557,151z"/>
					<path class="st39" d="M1549.6,261.6l1.5-23.4l1.6-25l-31.1,42.8l-3.6,54.5L1549.6,261.6z"/>
					<path class="st37" d="M730.9,665.3l43.9,9.8l48,10.8l-4.3-40.6l-238.4-50.5l6.5,38.1L730.9,665.3z"/>
					<path class="st17" d="M769,674l53.7,11.6l-4.3-40.6L765,634L769,674z"/>
					<path class="st40" d="M1258,655l-0.1,44l41.4,8.7L1347,718l-1,42.3l136.3,29.7l4.9-87.6L1258,655z"/>
					<path class="st41" d="M1088.2,620.4L1088.2,620.4l0,0.8l2,42.3L1258,699v-44L1088.2,620.4z"/>
					<path class="st30" d="M1313.9,190.6l-73.2,80.6l0,0l52.2,8.1l24.7,3.8l52.2,8.1l78.2,12.1l0,0.6l0,0.1l6.2-8.7l54.5-76.5l0-0.2
						l0-0.4L1313.9,190.6z"/>
				</g>
			</g>
		</g>
		<g id="layer_3_00000041281231643831881870000006032685160250451614_">
			<g>
				<defs>
					<rect id="SVGID_00000056406953780475375720000009713763706679271324_" width="1639" height="1036"/>
				</defs>
				<clipPath id="SVGID_00000047776966914728520650000004292831592983775383_">
					<use xlink:href="#SVGID_00000056406953780475375720000009713763706679271324_"  style="overflow:visible;"/>
				</clipPath>
				<g style="clip-path:url(#SVGID_00000047776966914728520650000004292831592983775383_);">
					<text transform="matrix(0.9946 0.1989 -0.4561 0.8899 1277.5111 626.4774)" class="st43 st44 st45">A</text>
					<text transform="matrix(0.9946 0.1989 -0.4561 0.8899 1289.8872 628.9521)" class="st43 st44 st45">D</text>
					<text transform="matrix(0.9946 0.1989 -0.4561 0.8899 1301.8419 631.3426)" class="st43 st44 st45">M</text>
					<text transform="matrix(0.9946 0.1989 -0.4561 0.8899 1317.9507 634.5638)" class="st43 st44 st45">I</text>
					<text transform="matrix(0.9946 0.1989 -0.4561 0.8899 1323.3104 635.6355)" class="st43 st44 st45">N</text>
					<text transform="matrix(0.9946 0.1989 -0.4561 0.8899 1336.2946 638.2319)" class="st43 st44 st45">I</text>
					<text transform="matrix(0.9946 0.1989 -0.4561 0.8899 1341.6553 639.3038)" class="st43 st44 st45">S</text>
					<text transform="matrix(0.9946 0.1989 -0.4561 0.8899 1352.9646 641.5652)" class="st43 st44 st45">T</text>
					<text transform="matrix(0.9946 0.1989 -0.4561 0.8899 1364.3486 643.8416)" class="st43 st44 st45">R</text>
					<text transform="matrix(0.9946 0.1989 -0.4561 0.8899 1376.0812 646.1877)" class="st43 st44 st45">A</text>
					<text transform="matrix(0.9946 0.1989 -0.4561 0.8899 1387.3771 648.4465)" class="st43 st44 st45">T</text>
					<text transform="matrix(0.9946 0.1989 -0.4561 0.8899 1398.7611 650.7228)" class="st43 st44 st45">I</text>
					<text transform="matrix(0.9946 0.1989 -0.4561 0.8899 1404.1218 651.7948)" class="st43 st44 st45">O</text>
					<text transform="matrix(0.9946 0.1989 -0.4561 0.8899 1416.811 654.3322)" class="st43 st44 st45">N</text>
				</g>
			</g>
			<path class="st46" d="M876.6,618.4l-62.5-13.2L719,585.1l-39.9-8.4l6,40.4l133.3,28.3l36.3,7.9l25.8,5.6L876.6,618.4z"/>
			<path class="st39" d="M573,554.3l6.8,39.1l0.2,1.4l105.1,22.3l-6-40.4L573,554.3z"/>
			<path class="st47" d="M1522.4,633.6l-232.8-45.1l-47.4,63.9l245,50.1L1522.4,633.6z"/>
			<path class="st48" d="M1139.4,558.1l-51.2,62.3L1258,656l45-65L1139.4,558.1z"/>
			<g>
				<defs>
					<rect id="SVGID_00000176726069230288288730000016078780965475289000_" width="1639" height="1036"/>
				</defs>
				<clipPath id="SVGID_00000063612144847922040010000008395056582346198943_">
					<use xlink:href="#SVGID_00000176726069230288288730000016078780965475289000_"  style="overflow:visible;"/>
				</clipPath>
				<g style="clip-path:url(#SVGID_00000063612144847922040010000008395056582346198943_);">
					<text transform="matrix(0.8572 0.1895 -0.4777 0.8785 1130.5593 790.6924)" class="st43 st44 st50">A</text>
					<text transform="matrix(0.8572 0.1895 -0.4777 0.8785 1154.4702 795.9785)" class="st43 st44 st50">B</text>
					<text transform="matrix(0.8572 0.1895 -0.4777 0.8785 1177.1359 800.9892)" class="st43 st44 st50">I</text>
					<text transform="matrix(0.8572 0.1895 -0.4777 0.8785 1187.4923 803.2787)" class="st43 st44 st50">L</text>
					<text transform="matrix(0.8572 0.1895 -0.4777 0.8785 1206.749 807.5358)" class="st43 st44 st50">D</text>
					<text transform="matrix(0.8572 0.1895 -0.4777 0.8785 1229.8418 812.6409)" class="st43 st44 st50">G</text>
					<text transform="matrix(0.8572 0.1895 -0.4777 0.8785 1254.035 817.9894)" class="st43 st44 st50">Å</text>
					<text transform="matrix(0.8572 0.1895 -0.4777 0.8785 1277.9451 823.2752)" class="st43 st44 st50">R</text>
					<text transform="matrix(0.8572 0.1895 -0.4777 0.8785 1300.6116 828.2861)" class="st43 st44 st50">D</text>
					<text transform="matrix(0.8572 0.1895 -0.4777 0.8785 1323.7045 833.3912)" class="st43 st44 st50">S</text>
					<text transform="matrix(0.8572 0.1895 -0.4777 0.8785 1345.5538 838.2215)" class="st43 st44 st50">V</text>
					<text transform="matrix(0.8572 0.1895 -0.4777 0.8785 1368.7888 843.3581)" class="st43 st44 st50">E</text>
					<text transform="matrix(0.8572 0.1895 -0.4777 0.8785 1388.7731 847.7761)" class="st43 st44 st50">J</text>
				</g>
			</g>
			<path class="st46" d="M1217.1,404.2L1217.1,404.2l142.1,24.5l21.2-29.7l26.7-37.4l-136.4-21.9L1217.1,404.2z"/>
			<path class="st46" d="M998.3,366.4l133.4,23l0-0.4l57.8-62.4l-127.4-20.4L998.3,366.4z"/>
			<path class="st39" d="M1448.1,303.9l0-0.6l-78.2-12.1l-52.2-8.1l-47,56.5l136.4,21.9l41-57.5L1448.1,303.9z"/>
			<path class="st39" d="M1240.8,271.2l-36.2-5.6l-85.5-13.2l-56.9,53.8l127.4,20.4l10.4-11.2L1240.8,271.2z"/>
			<path class="st30" d="M1313.9,190.6l-112.6-16l-26.6,25.1l115.6,16.9L1313.9,190.6z"/>
			<path class="st46" d="M1174.7,199.8l-11,10.3l-44.7,42.2l85.5,13.2l36.2,5.6l40.1-44.1l9.4-10.4L1174.7,199.8z"/>
			<path class="st39" d="M1407.1,361.5L1407.1,361.5l-26.7,37.4l-21.2,29.7l-1.2,45.8l-0.6,22l48.2-68.8L1407.1,361.5z"/>
			<path class="st38" d="M1357.4,496.5l-1.8,67.3l48.6-75.7l1.4-60.4L1357.4,496.5z"/>
			<path class="st38" d="M1405.6,427.7l39.8-56.8l2.7-66.9l-41,57.5L1405.6,427.7z"/>
			<path class="st39" d="M1445.4,370.9l-39.8,56.8l-1.4,60.4l38.9-60.6L1445.4,370.9z"/>
		</g>
		<g id="layer_3_00000086666020199259939620000006895578780931485621_">
			<g>
				<defs>
					<rect id="SVGID_00000074431794866874541750000007579940007321188799_" width="1639" height="1036"/>
				</defs>
				<clipPath id="SVGID_00000097462029639179358990000010490754462110893715_">
					<use xlink:href="#SVGID_00000074431794866874541750000007579940007321188799_"  style="overflow:visible;"/>
				</clipPath>
				<g style="clip-path:url(#SVGID_00000097462029639179358990000010490754462110893715_);">
					<path class="st52" d="M1496.1,532.1h-18.3c-5.6,0-10.1-4.5-10.1-10.1v-18.3c0-5.6,4.5-10.1,10.1-10.1h18.3
						c5.6,0,10.1,4.5,10.1,10.1V522C1506.2,527.6,1501.7,532.1,1496.1,532.1"/>
				</g>
			</g>
			<text transform="matrix(1 0 0 1 1477.8325 523.8291)" class="st11 st44 st53">P</text>
			<g>
				<defs>
					<rect id="SVGID_00000072960748249070246840000004137720900004651683_" width="1639" height="1036"/>
				</defs>
				<clipPath id="SVGID_00000107564809999732920490000013922568672091704233_">
					<use xlink:href="#SVGID_00000072960748249070246840000004137720900004651683_"  style="overflow:visible;"/>
				</clipPath>
				<g style="clip-path:url(#SVGID_00000107564809999732920490000013922568672091704233_);">
					<path d="M947.4,662.8h-18.3c-5.6,0-10.1-4.5-10.1-10.1v-18.3c0-5.6,4.5-10.1,10.1-10.1h18.3c5.6,0,10.1,4.5,10.1,10.1v18.3
						C957.5,658.2,953,662.8,947.4,662.8"/>
					<path class="st11" d="M947.1,636.2c1.2,0,2.2-1,2.2-2.2c0-1.2-1-2.2-2.2-2.2s-2.2,1-2.2,2.2
						C944.9,635.2,945.9,636.2,947.1,636.2"/>
					<path class="st11" d="M952.4,643.6l-2.4-6c-0.2-0.4-0.5-0.7-1-0.7h-3.7c-0.4,0-0.8,0.3-1,0.7l-2.4,6c-0.2,0.5,0,1.1,0.6,1.4
						c0.5,0.2,1.1,0,1.4-0.6l1.1-2.6l-0.1,1.8l-1.7,4.9c-0.1,0.4,0.2,0.9,0.6,0.9h1v4.3c0,0.6,0.5,1,1,1c0.6,0,1-0.5,1-1v-4.3h0.6
						v4.3c0,0.6,0.5,1,1,1c0.6,0,1-0.5,1-1v-4.3h1c0.4,0,0.8-0.4,0.6-0.9l-1.7-4.9l-0.1-1.8l1.1,2.6c0.2,0.4,0.6,0.7,1,0.7
						c0.1,0,0.3,0,0.4-0.1C952.4,644.8,952.6,644.2,952.4,643.6"/>
					<path class="st11" d="M929.3,636.2c1.2,0,2.2-1,2.2-2.2c0-1.2-1-2.2-2.2-2.2s-2.2,1-2.2,2.2
						C927.1,635.2,928.1,636.2,929.3,636.2"/>
					<path class="st11" d="M932.2,637.6c-0.1-0.4-0.5-0.7-1-0.7h-3.8c-0.4,0-0.8,0.3-1,0.7l-2.1,6c-0.2,0.5,0.1,1.1,0.6,1.3
						c0.5,0.2,1.1-0.1,1.3-0.6l0.9-2.6l-0.3,4.4c0,0,0,0.1,0,0.1v7.4c0,0.6,0.5,1,1,1c0.6,0,1-0.5,1-1v-6.4h0.6v6.4c0,0.6,0.5,1,1,1
						c0.6,0,1-0.5,1-1v-7.4c0,0,0-0.1,0-0.1l-0.3-4.4l0.9,2.6c0.2,0.4,0.6,0.7,1,0.7c0.1,0,0.2,0,0.4-0.1c0.5-0.2,0.8-0.8,0.6-1.3
						L932.2,637.6z"/>
					<path class="st11" d="M938.2,631.1c-0.2,0-0.3,0.1-0.3,0.3v22.8c0,0.2,0.1,0.3,0.3,0.3s0.3-0.1,0.3-0.3v-22.8
						C938.5,631.2,938.4,631.1,938.2,631.1"/>
					<path d="M1250,313.8h-18.3c-5.6,0-10.1-4.5-10.1-10.1v-18.3c0-5.6,4.5-10.1,10.1-10.1h18.3c5.6,0,10.1,4.5,10.1,10.1v18.3
						C1260.1,309.2,1255.6,313.8,1250,313.8"/>
					<path class="st11" d="M1249.8,287.2c1.2,0,2.2-1,2.2-2.2c0-1.2-1-2.2-2.2-2.2s-2.2,1-2.2,2.2
						C1247.6,286.2,1248.5,287.2,1249.8,287.2"/>
					<path class="st11" d="M1255,294.6l-2.4-6c-0.2-0.4-0.5-0.7-1-0.7h-3.7c-0.4,0-0.8,0.3-1,0.7l-2.4,6c-0.2,0.5,0,1.1,0.6,1.4
						c0.5,0.2,1.1,0,1.4-0.6l1.1-2.6l-0.1,1.8l-1.7,4.9c-0.1,0.4,0.2,0.9,0.6,0.9h1v4.3c0,0.6,0.5,1,1,1c0.6,0,1-0.5,1-1v-4.3h0.6
						v4.3c0,0.6,0.5,1,1,1c0.6,0,1.1-0.5,1.1-1v-4.3h1c0.4,0,0.8-0.4,0.6-0.9l-1.7-4.9l-0.1-1.8l1.1,2.6c0.2,0.4,0.6,0.7,1,0.7
						c0.1,0,0.3,0,0.4-0.1C1255,295.8,1255.3,295.1,1255,294.6"/>
					<path class="st11" d="M1232,287.2c1.2,0,2.2-1,2.2-2.2c0-1.2-1-2.2-2.2-2.2s-2.2,1-2.2,2.2
						C1229.7,286.2,1230.7,287.2,1232,287.2"/>
					<path class="st11" d="M1234.8,288.6c-0.1-0.4-0.5-0.7-1-0.7h-3.8c-0.4,0-0.8,0.3-1,0.7l-2.1,6c-0.2,0.5,0.1,1.1,0.6,1.3
						c0.5,0.2,1.1-0.1,1.3-0.6l0.9-2.6l-0.3,4.4c0,0,0,0.1,0,0.1v7.4c0,0.6,0.5,1,1.1,1c0.6,0,1-0.5,1-1v-6.4h0.6v6.4
						c0,0.6,0.5,1,1,1c0.6,0,1-0.5,1-1v-7.4c0,0,0-0.1,0-0.1l-0.3-4.4l0.9,2.6c0.2,0.4,0.6,0.7,1,0.7c0.1,0,0.2,0,0.4-0.1
						c0.5-0.2,0.8-0.8,0.6-1.3L1234.8,288.6z"/>
					<path class="st11" d="M1240.8,282.1c-0.2,0-0.3,0.1-0.3,0.3v22.8c0,0.2,0.1,0.3,0.3,0.3s0.3-0.1,0.3-0.3v-22.8
						C1241.1,282.2,1241,282.1,1240.8,282.1"/>
				</g>
			</g>
		</g>
	</g>
	<g id="layer_2_00000057855876041303003300000010576115740863857587_">
		<g id="layer_3_00000008848686408223372150000005125469962694908349_">
			<g>
				<defs>
					<rect id="SVGID_00000109708605155453499070000015038218443771841953_" width="1639" height="1036"/>
				</defs>
				<clipPath id="SVGID_00000080175970082273709280000015464963974668806335_">
					<use xlink:href="#SVGID_00000109708605155453499070000015038218443771841953_"  style="overflow:visible;"/>
				</clipPath>
				<g style="clip-path:url(#SVGID_00000080175970082273709280000015464963974668806335_);">
					<text transform="matrix(0.9773 0.2229 0.1541 0.9881 612.0134 588.6552)" class="st11 st44 st56">R</text>
					<text transform="matrix(0.9773 0.2229 0.1541 0.9881 622.6132 591.0727)" class="st11 st44 st56">2</text>
					<text transform="matrix(0.9773 0.2229 0.1541 0.9881 632.1501 593.2478)" class="st11 st44 st56">3</text>
					<text transform="matrix(0.9898 0.2062 0.1381 0.9904 764.0389 620.9694)" class="st11 st44 st57">R</text>
					<text transform="matrix(0.9898 0.2062 0.1381 0.9904 774.6581 623.1816)" class="st11 st44 st57">2</text>
					<text transform="matrix(0.9898 0.2062 0.1381 0.9904 784.2118 625.1719)" class="st11 st44 st57">2</text>
					<text transform="matrix(0.922 0.1929 9.985757e-02 0.995 1011.9603 652.8351)" class="st58 st44 st59">R</text>
					<text transform="matrix(0.922 0.1929 9.985757e-02 0.995 1021.605 654.853)" class="st58 st44 st59">2</text>
					<text transform="matrix(0.922 0.1929 9.985757e-02 0.995 1030.2823 656.6683)" class="st58 st44 st59">0</text>
					<text transform="matrix(0.922 0.1929 9.985757e-02 0.995 1038.9597 658.4838)" class="st58 st44 st59">-</text>
					<text transform="matrix(0.922 0.1929 9.985757e-02 0.995 1044.825 659.7108)" class="st58 st44 st59">R</text>
					<text transform="matrix(0.922 0.1929 9.985757e-02 0.995 1054.4686 661.7284)" class="st58 st44 st59">2</text>
					<text transform="matrix(0.922 0.1929 9.985757e-02 0.995 1063.146 663.5438)" class="st58 st44 st59">8</text>
					<text transform="matrix(1.0861 0.2279 -1.970585e-03 1 1373.3822 750.4261)" class="st11 st44 st60">R</text>
					<text transform="matrix(1.0861 0.2279 -1.970585e-03 1 1385.1617 752.8984)" class="st11 st44 st60">1</text>
					<text transform="matrix(1.0861 0.2279 -1.970585e-03 1 1395.759 755.1229)" class="st11 st44 st60">6</text>
					<text transform="matrix(1.0861 0.2279 -1.970585e-03 1 1406.3572 757.3467)" class="st11 st44 st60">-</text>
					<text transform="matrix(1.0861 0.2279 -1.970585e-03 1 1413.5215 758.8503)" class="st11 st44 st60">R</text>
					<text transform="matrix(1.0861 0.2279 -1.970585e-03 1 1425.3009 761.3225)" class="st11 st44 st60">1</text>
					<text transform="matrix(1.0861 0.2279 -1.970585e-03 1 1435.8992 763.5468)" class="st11 st44 st60">7</text>
					<text transform="matrix(1.0497 0.2236 8.952952e-03 1 1305.9976 736.6846)" class="st11 st44 st60">R</text>
					<text transform="matrix(1.0497 0.2236 8.952952e-03 1 1317.3828 739.1096)" class="st11 st44 st60">1</text>
					<text transform="matrix(1.0497 0.2236 8.952952e-03 1 1327.6256 741.2913)" class="st11 st44 st60">8</text>
					<text transform="matrix(1.0497 0.2236 8.952952e-03 1 1261.9949 727.6856)" class="st11 st44 st60">R</text>
					<text transform="matrix(1.0497 0.2236 8.952952e-03 1 1273.3792 730.1104)" class="st11 st44 st60">1</text>
					<text transform="matrix(1.0497 0.2236 8.952952e-03 1 1283.6229 732.2923)" class="st11 st44 st60">9</text>
					<text transform="matrix(0.9773 0.2229 0.1541 0.9881 652.0131 634.6548)" class="st11 st44 st56">R</text>
					<text transform="matrix(0.9773 0.2229 0.1541 0.9881 662.613 637.0729)" class="st11 st44 st56">2</text>
					<text transform="matrix(0.9773 0.2229 0.1541 0.9881 672.1499 639.248)" class="st11 st44 st56">4</text>
					<text transform="matrix(0.921 0.1765 -0.7119 0.7023 1084.63 346.1444)" class="st11 st44 st60">R</text>
					<text transform="matrix(0.921 0.1765 -0.7119 0.7023 1094.6191 348.0584)" class="st11 st44 st60">7</text>
					<text transform="matrix(0.9258 0.1459 -0.7094 0.7048 1140.6875 291.4899)" class="st11 st44 st56">R</text>
					<text transform="matrix(0.9258 0.1459 -0.7094 0.7048 1150.7275 293.0723)" class="st11 st44 st56">8</text>
					<text transform="matrix(0.927 0.1414 -0.6847 0.7288 1174.5219 233.0841)" class="st11 st44 st60">R</text>
					<text transform="matrix(0.927 0.1414 -0.6847 0.7288 1184.5765 234.6178)" class="st11 st44 st60">9</text>
					<text transform="matrix(0.927 0.1414 -0.6847 0.7288 1193.6222 235.9976)" class="st11 st44 st60">-</text>
					<text transform="matrix(0.927 0.1414 -0.6847 0.7288 1199.7361 236.9302)" class="st11 st44 st60">R</text>
					<text transform="matrix(0.927 0.1414 -0.6847 0.7288 1209.7906 238.4638)" class="st11 st44 st60">1</text>
					<text transform="matrix(0.927 0.1414 -0.6847 0.7288 1218.8364 239.8436)" class="st11 st44 st60">0</text>
					<text transform="matrix(0.9779 0.1693 -0.6257 0.7801 1299.9998 381.2404)" class="st11 st44 st61">R</text>
					<text transform="matrix(0.9779 0.1693 -0.6257 0.7801 1310.6069 383.0764)" class="st11 st44 st61">5</text>
					<text transform="matrix(0.9779 0.1693 -0.6257 0.7801 1346.0293 324.206)" class="st11 st44 st61">R</text>
					<text transform="matrix(0.9779 0.1693 -0.6257 0.7801 1356.6349 326.0425)" class="st11 st44 st61">6</text>
					<text transform="matrix(0.9509 0.1304 -0.6366 0.7712 1432.1218 161.6197)" class="st11 st44 st56">R</text>
					<text transform="matrix(0.9509 0.1304 -0.6366 0.7712 1442.4354 163.0345)" class="st11 st44 st56">1</text>
					<text transform="matrix(0.9509 0.1304 -0.6366 0.7712 1451.7147 164.3074)" class="st11 st44 st56">3</text>
					<text transform="matrix(0.9509 0.1304 -0.6366 0.7712 1460.993 165.5802)" class="st11 st44 st56">-</text>
					<text transform="matrix(0.9509 0.1304 -0.6366 0.7712 1467.2664 166.4407)" class="st11 st44 st56">R</text>
					<text transform="matrix(0.9509 0.1304 -0.6366 0.7712 1477.58 167.8555)" class="st11 st44 st56">1</text>
					<text transform="matrix(0.9509 0.1304 -0.6366 0.7712 1486.8583 169.1282)" class="st11 st44 st56">4</text>
					<text transform="matrix(0.9903 0.133 -0.6678 0.7443 1366.2709 235.5521)" class="st11 st44 st56">H</text>
					<text transform="matrix(0.9903 0.133 -0.6678 0.7443 1378.3132 237.1691)" class="st11 st44 st56">A</text>
					<text transform="matrix(0.9903 0.133 -0.6678 0.7443 1389.6422 238.6903)" class="st11 st44 st56">L</text>
					<text transform="matrix(0.9903 0.133 -0.6678 0.7443 1353.859 250.8994)" class="st11 st44 st56">R</text>
					<text transform="matrix(0.9903 0.133 -0.6678 0.7443 1364.5995 252.3416)" class="st11 st44 st56">1</text>
					<text transform="matrix(0.9903 0.133 -0.6678 0.7443 1374.2618 253.639)" class="st11 st44 st56">1</text>
					<text transform="matrix(0.9602 0.1247 -0.7001 0.7141 1322.9631 124.8622)" class="st11 st44 st60">H</text>
					<text transform="matrix(0.9602 0.1247 -0.7001 0.7141 1334.6405 126.3783)" class="st11 st44 st60">A</text>
					<text transform="matrix(0.9602 0.1247 -0.7001 0.7141 1345.6263 127.8048)" class="st11 st44 st60">L</text>
					<text transform="matrix(0.9602 0.1247 -0.7001 0.7141 1309.8568 139.5819)" class="st11 st44 st60">R</text>
					<text transform="matrix(0.9602 0.1247 -0.7001 0.7141 1320.2714 140.9341)" class="st11 st44 st60">1</text>
					<text transform="matrix(0.9602 0.1247 -0.7001 0.7141 1329.6418 142.1508)" class="st11 st44 st60">2</text>
					<text transform="matrix(0.9262 0.1895 -0.7168 0.6972 836.0486 556.9626)" class="st11 st44 st56">R</text>
					<text transform="matrix(0.9262 0.1895 -0.7168 0.6972 846.0935 559.0179)" class="st11 st44 st56">2</text>
					<text transform="matrix(0.9262 0.1895 -0.7168 0.6972 855.1309 560.8669)" class="st11 st44 st56">7</text>
					<text transform="matrix(0.9953 0.2024 -0.6213 0.7836 1169.05 617.9038)" class="st11 st44 st61">R</text>
					<text transform="matrix(0.9953 0.2024 -0.6213 0.7836 1179.8438 620.0987)" class="st11 st44 st61">2</text>
					<text transform="matrix(0.9953 0.2024 -0.6213 0.7836 1189.5562 622.0737)" class="st11 st44 st61">5</text>
					<text transform="matrix(1.0121 0.2049 -0.6264 0.7795 1138.0148 591.4973)" class="st11 st44 st61">K</text>
					<text transform="matrix(1.0121 0.2049 -0.6264 0.7795 1148.9397 593.7086)" class="st11 st44 st61">U</text>
					<text transform="matrix(1.0121 0.2049 -0.6264 0.7795 1160.2628 596.0005)" class="st11 st44 st61">N</text>
					<text transform="matrix(1.0121 0.2049 -0.6264 0.7795 1172.4091 598.459)" class="st11 st44 st61">D</text>
					<text transform="matrix(1.0121 0.2049 -0.6264 0.7795 1183.5944 600.7231)" class="st11 st44 st61">E</text>
					<text transform="matrix(1.0121 0.2049 -0.6264 0.7795 1193.2721 602.6819)" class="st11 st44 st61">S</text>
					<text transform="matrix(1.0121 0.2049 -0.6264 0.7795 1203.8534 604.8237)" class="st11 st44 st61">E</text>
					<text transform="matrix(1.0121 0.2049 -0.6264 0.7795 1213.5321 606.7828)" class="st11 st44 st61">R</text>
					<text transform="matrix(1.0121 0.2049 -0.6264 0.7795 1224.3538 608.9732)" class="st11 st44 st61">V</text>
					<text transform="matrix(1.0121 0.2049 -0.6264 0.7795 1235.606 611.2508)" class="st11 st44 st61">I</text>
					<text transform="matrix(1.0121 0.2049 -0.6264 0.7795 1240.6215 612.266)" class="st11 st44 st61">C</text>
					<text transform="matrix(1.0121 0.2049 -0.6264 0.7795 1251.8738 614.5436)" class="st11 st44 st61">E</text>
					<text transform="matrix(0.9906 0.1888 3.841776e-02 0.9993 1040.7512 479.0212)" class="st11 st44 st60">R</text>
					<text transform="matrix(0.9906 0.1888 3.841776e-02 0.9993 1051.4954 481.0685)" class="st11 st44 st60">3</text>
					<text transform="matrix(0.9906 0.1888 3.841776e-02 0.9993 1061.1614 482.9103)" class="st11 st44 st60">-</text>
					<text transform="matrix(0.9906 0.1888 3.841776e-02 0.9993 1067.696 484.1555)" class="st11 st44 st60">R</text>
					<text transform="matrix(0.9906 0.1888 3.841776e-02 0.9993 1078.4403 486.2027)" class="st11 st44 st60">4</text>
					<text transform="matrix(0.9858 0.1907 3.017687e-03 1 1259.6569 520.0292)" class="st11 st44 st62">R</text>
					<text transform="matrix(0.9858 0.1907 3.017687e-03 1 1270.3483 522.0967)" class="st11 st44 st62">1</text>
					<text transform="matrix(0.9858 0.1907 3.017687e-03 1 1279.9679 523.9578)" class="st11 st44 st62">-</text>
					<text transform="matrix(0.9858 0.1907 3.017687e-03 1 1286.4705 525.2155)" class="st11 st44 st62">R</text>
					<text transform="matrix(0.9858 0.1907 3.017687e-03 1 1297.1619 527.283)" class="st11 st44 st62">2</text>
					<text transform="matrix(0.8837 0.1664 1.881775e-02 0.9998 1143.3326 459.0864)" class="st58 st44 st56">K</text>
					<text transform="matrix(0.8837 0.1664 1.881775e-02 0.9998 1152.8721 460.8827)" class="st58 st44 st56">A</text>
					<text transform="matrix(0.8837 0.1664 1.881775e-02 0.9998 1162.9824 462.7865)" class="st58 st44 st56">N</text>
					<text transform="matrix(0.8837 0.1664 1.881775e-02 0.9998 1173.377 464.7438)" class="st58 st44 st56">T</text>
					<text transform="matrix(0.8837 0.1664 1.881775e-02 0.9998 1182.6764 466.4949)" class="st58 st44 st56">I</text>
					<text transform="matrix(0.8837 0.1664 1.881775e-02 0.9998 1187.0554 467.3195)" class="st58 st44 st56">N</text>
					<text transform="matrix(0.8837 0.1664 1.881775e-02 0.9998 1197.662 469.3172)" class="st58 st44 st56">E</text>
					<text transform="matrix(0.8837 0.1664 1.881775e-02 0.9998 1153.9767 481.4147)" class="st58 st44 st56">R</text>
					<text transform="matrix(0.8837 0.1664 1.881775e-02 0.9998 1163.5621 483.2196)" class="st58 st44 st56">1</text>
					<text transform="matrix(0.8837 0.1664 1.881775e-02 0.9998 1172.1849 484.8433)" class="st58 st44 st56">-</text>
					<text transform="matrix(0.8837 0.1664 1.881775e-02 0.9998 1178.0142 485.941)" class="st58 st44 st56">R</text>
					<text transform="matrix(0.8837 0.1664 1.881775e-02 0.9998 1187.5986 487.7458)" class="st58 st44 st56">8</text>
					<text transform="matrix(0.9357 0.1481 -5.932990e-02 0.9982 1556.2583 454.6237)" class="st35 st44 st63">R</text>
					<text transform="matrix(0.9357 0.1481 -5.932990e-02 0.9982 1566.1951 456.1967)" class="st35 st44 st63">1</text>
					<text transform="matrix(0.9357 0.1481 -5.932990e-02 0.9982 1575.1345 457.6119)" class="st35 st44 st63">5</text>
					<text transform="matrix(0.9373 -0.1376 0.241 0.9705 529.4529 665.1319)" class="st64 st44 st65">FDM </text>
				</g>
			</g>
			<path class="st66" d="M1543.5,461.5l46.6,8.2"/>
			<path class="st35" d="M1600.5,471.5l-15.8,3.4l4.5-5.4l-2.4-6.6L1600.5,471.5z"/>
			<path class="st67" d="M523.8,678l57-8.9"/>
			<path class="st64" d="M527.8,669.8l-3.1,8l5.4,6.7L511,680L527.8,669.8z"/>
		</g>
		<g id="layer_3_00000073700405205330630870000004753142727306907536_">
			<g>
				<defs>
					<rect id="SVGID_00000166670377547446151810000015075973345697413008_" width="1639" height="1036"/>
				</defs>
				<clipPath id="SVGID_00000003088048901967665220000009232798863384551829_">
					<use xlink:href="#SVGID_00000166670377547446151810000015075973345697413008_"  style="overflow:visible;"/>
				</clipPath>
				<g style="clip-path:url(#SVGID_00000003088048901967665220000009232798863384551829_);">
					<path class="st69" d="M1175.6,381c-9.7,0-17.6,7.9-17.6,17.6s9.8,27.7,17.6,35.4c8.1-8.1,17.6-25.7,17.6-35.4
						S1185.3,381,1175.6,381"/>
				</g>
			</g>
		</g>
	</g>
</g>
</svg>
